<mxfile host="app.diagrams.net" modified="2023-11-03T11:26:05.485Z" agent="Mozilla/5.0 (Windows NT 10.0; Win64; x64) AppleWebKit/537.36 (KHTML, like Gecko) Chrome/119.0.0.0 Safari/537.36" etag="q8lgETnug0lIrBNSZ07Y" version="22.0.8" type="github">
  <diagram name="Page-1" id="c7488fd3-1785-93aa-aadb-54a6760d102a">
    <mxGraphModel dx="2662" dy="822" grid="1" gridSize="10" guides="1" tooltips="1" connect="1" arrows="1" fold="1" page="1" pageScale="1" pageWidth="1100" pageHeight="850" background="none" math="0" shadow="0">
      <root>
        <mxCell id="0" />
        <mxCell id="1" parent="0" />
        <mxCell id="TrzoBiRfz2zYVmt36XyP-1" value="" style="swimlane;html=1;startSize=20;fontStyle=0;collapsible=0;horizontal=0;swimlaneLine=1;swimlaneFillColor=#ffffff;strokeWidth=2;whiteSpace=wrap;" vertex="1" parent="1">
          <mxGeometry x="-1070" y="10" width="950" height="240" as="geometry" />
        </mxCell>
        <mxCell id="TrzoBiRfz2zYVmt36XyP-2" value="" style="edgeStyle=orthogonalEdgeStyle;rounded=0;orthogonalLoop=1;jettySize=auto;html=1;entryX=0;entryY=0.5;entryDx=0;entryDy=0;entryPerimeter=0;" edge="1" parent="TrzoBiRfz2zYVmt36XyP-1" source="TrzoBiRfz2zYVmt36XyP-3" target="TrzoBiRfz2zYVmt36XyP-4">
          <mxGeometry relative="1" as="geometry">
            <mxPoint x="120" y="40" as="targetPoint" />
          </mxGeometry>
        </mxCell>
        <mxCell id="TrzoBiRfz2zYVmt36XyP-3" value="" style="points=[[0.145,0.145,0],[0.5,0,0],[0.855,0.145,0],[1,0.5,0],[0.855,0.855,0],[0.5,1,0],[0.145,0.855,0],[0,0.5,0]];shape=mxgraph.bpmn.event;html=1;verticalLabelPosition=bottom;labelBackgroundColor=#ffffff;verticalAlign=top;align=center;perimeter=ellipsePerimeter;outlineConnect=0;aspect=fixed;outline=standard;symbol=general;fillColor=#d5e8d4;strokeColor=#82b366;" vertex="1" parent="TrzoBiRfz2zYVmt36XyP-1">
          <mxGeometry x="30" y="116.5" width="20" height="20" as="geometry" />
        </mxCell>
        <mxCell id="TrzoBiRfz2zYVmt36XyP-4" value="&lt;font style=&quot;font-size: 9px;&quot;&gt;Заказы в загрузились в статусе&lt;br&gt;&amp;nbsp;Заблокирован&lt;/font&gt;" style="points=[[0.25,0,0],[0.5,0,0],[0.75,0,0],[1,0.25,0],[1,0.5,0],[1,0.75,0],[0.75,1,0],[0.5,1,0],[0.25,1,0],[0,0.75,0],[0,0.5,0],[0,0.25,0]];shape=mxgraph.bpmn.task;whiteSpace=wrap;rectStyle=rounded;size=10;html=1;container=1;expand=0;collapsible=0;taskMarker=abstract;fillColor=#dae8fc;strokeColor=#6c8ebf;" vertex="1" parent="TrzoBiRfz2zYVmt36XyP-1">
          <mxGeometry x="90" y="94" width="90" height="65" as="geometry" />
        </mxCell>
        <mxCell id="TrzoBiRfz2zYVmt36XyP-5" value="&lt;font style=&quot;font-size: 9px;&quot;&gt;Перевели все заказы в статус &quot;К планированию&quot;&lt;/font&gt;" style="points=[[0.25,0,0],[0.5,0,0],[0.75,0,0],[1,0.25,0],[1,0.5,0],[1,0.75,0],[0.75,1,0],[0.5,1,0],[0.25,1,0],[0,0.75,0],[0,0.5,0],[0,0.25,0]];shape=mxgraph.bpmn.task;whiteSpace=wrap;rectStyle=rounded;size=10;html=1;container=1;expand=0;collapsible=0;taskMarker=abstract;fillColor=#dae8fc;strokeColor=#6c8ebf;" vertex="1" parent="TrzoBiRfz2zYVmt36XyP-1">
          <mxGeometry x="200" y="94" width="90" height="65" as="geometry" />
        </mxCell>
        <mxCell id="TrzoBiRfz2zYVmt36XyP-6" value="" style="edgeStyle=orthogonalEdgeStyle;rounded=0;orthogonalLoop=1;jettySize=auto;html=1;" edge="1" parent="TrzoBiRfz2zYVmt36XyP-1" source="TrzoBiRfz2zYVmt36XyP-7" target="TrzoBiRfz2zYVmt36XyP-17">
          <mxGeometry relative="1" as="geometry" />
        </mxCell>
        <mxCell id="TrzoBiRfz2zYVmt36XyP-7" value="&lt;font style=&quot;font-size: 9px;&quot;&gt;Заказ в статусе &quot;Спланирован&quot;&lt;/font&gt;" style="points=[[0.25,0,0],[0.5,0,0],[0.75,0,0],[1,0.25,0],[1,0.5,0],[1,0.75,0],[0.75,1,0],[0.5,1,0],[0.25,1,0],[0,0.75,0],[0,0.5,0],[0,0.25,0]];shape=mxgraph.bpmn.task;whiteSpace=wrap;rectStyle=rounded;size=10;html=1;container=1;expand=0;collapsible=0;taskMarker=abstract;fillColor=#dae8fc;strokeColor=#6c8ebf;" vertex="1" parent="TrzoBiRfz2zYVmt36XyP-1">
          <mxGeometry x="525" y="39" width="90" height="55" as="geometry" />
        </mxCell>
        <mxCell id="TrzoBiRfz2zYVmt36XyP-8" style="edgeStyle=orthogonalEdgeStyle;rounded=0;orthogonalLoop=1;jettySize=auto;html=1;entryX=0;entryY=0.5;entryDx=0;entryDy=0;entryPerimeter=0;" edge="1" parent="TrzoBiRfz2zYVmt36XyP-1" source="TrzoBiRfz2zYVmt36XyP-12" target="TrzoBiRfz2zYVmt36XyP-16">
          <mxGeometry relative="1" as="geometry">
            <Array as="points">
              <mxPoint x="500" y="127" />
              <mxPoint x="500" y="187" />
            </Array>
          </mxGeometry>
        </mxCell>
        <mxCell id="TrzoBiRfz2zYVmt36XyP-9" value="НЕТ" style="edgeLabel;html=1;align=center;verticalAlign=middle;resizable=0;points=[];" vertex="1" connectable="0" parent="TrzoBiRfz2zYVmt36XyP-8">
          <mxGeometry x="-0.1544" y="-1" relative="1" as="geometry">
            <mxPoint x="65" y="-1" as="offset" />
          </mxGeometry>
        </mxCell>
        <mxCell id="TrzoBiRfz2zYVmt36XyP-10" style="edgeStyle=orthogonalEdgeStyle;rounded=0;orthogonalLoop=1;jettySize=auto;html=1;entryX=0;entryY=0.5;entryDx=0;entryDy=0;entryPerimeter=0;" edge="1" parent="TrzoBiRfz2zYVmt36XyP-1" source="TrzoBiRfz2zYVmt36XyP-12" target="TrzoBiRfz2zYVmt36XyP-7">
          <mxGeometry relative="1" as="geometry">
            <Array as="points">
              <mxPoint x="500" y="127" />
              <mxPoint x="500" y="67" />
            </Array>
          </mxGeometry>
        </mxCell>
        <mxCell id="TrzoBiRfz2zYVmt36XyP-11" value="ДА" style="edgeLabel;html=1;align=center;verticalAlign=middle;resizable=0;points=[];" vertex="1" connectable="0" parent="TrzoBiRfz2zYVmt36XyP-10">
          <mxGeometry x="-0.0626" relative="1" as="geometry">
            <mxPoint as="offset" />
          </mxGeometry>
        </mxCell>
        <mxCell id="TrzoBiRfz2zYVmt36XyP-12" value="Этот заказ из &lt;br&gt;списка маршрута Тележек" style="points=[[0.25,0.25,0],[0.5,0,0],[0.75,0.25,0],[1,0.5,0],[0.75,0.75,0],[0.5,1,0],[0.25,0.75,0],[0,0.5,0]];shape=mxgraph.bpmn.gateway2;html=1;verticalLabelPosition=bottom;labelBackgroundColor=#ffffff;verticalAlign=top;align=center;perimeter=rhombusPerimeter;outlineConnect=0;outline=none;symbol=none;fillColor=#ffe6cc;strokeColor=#d79b00;" vertex="1" parent="TrzoBiRfz2zYVmt36XyP-1">
          <mxGeometry x="420" y="101.5" width="50" height="50" as="geometry" />
        </mxCell>
        <mxCell id="TrzoBiRfz2zYVmt36XyP-13" style="edgeStyle=orthogonalEdgeStyle;rounded=0;orthogonalLoop=1;jettySize=auto;html=1;exitX=1;exitY=0.5;exitDx=0;exitDy=0;exitPerimeter=0;" edge="1" parent="TrzoBiRfz2zYVmt36XyP-1" source="TrzoBiRfz2zYVmt36XyP-14">
          <mxGeometry relative="1" as="geometry">
            <mxPoint x="420" y="126.44827586206895" as="targetPoint" />
          </mxGeometry>
        </mxCell>
        <mxCell id="TrzoBiRfz2zYVmt36XyP-14" value="&lt;font size=&quot;1&quot;&gt;Авто планирование заказов&lt;/font&gt;" style="points=[[0.25,0,0],[0.5,0,0],[0.75,0,0],[1,0.25,0],[1,0.5,0],[1,0.75,0],[0.75,1,0],[0.5,1,0],[0.25,1,0],[0,0.75,0],[0,0.5,0],[0,0.25,0]];shape=mxgraph.bpmn.task;whiteSpace=wrap;rectStyle=rounded;size=10;html=1;container=1;expand=0;collapsible=0;taskMarker=abstract;fillColor=#dae8fc;strokeColor=#6c8ebf;" vertex="1" parent="TrzoBiRfz2zYVmt36XyP-1">
          <mxGeometry x="310" y="94" width="86.25" height="65" as="geometry" />
        </mxCell>
        <mxCell id="TrzoBiRfz2zYVmt36XyP-15" style="edgeStyle=orthogonalEdgeStyle;rounded=0;orthogonalLoop=1;jettySize=auto;html=1;entryX=0;entryY=0.5;entryDx=0;entryDy=0;entryPerimeter=0;" edge="1" parent="TrzoBiRfz2zYVmt36XyP-1" source="TrzoBiRfz2zYVmt36XyP-16" target="TrzoBiRfz2zYVmt36XyP-18">
          <mxGeometry relative="1" as="geometry" />
        </mxCell>
        <mxCell id="TrzoBiRfz2zYVmt36XyP-16" value="&lt;font style=&quot;font-size: 9px;&quot;&gt;Заказ в статусе &quot;Готов К ОТБОРУ&quot;&lt;/font&gt;" style="points=[[0.25,0,0],[0.5,0,0],[0.75,0,0],[1,0.25,0],[1,0.5,0],[1,0.75,0],[0.75,1,0],[0.5,1,0],[0.25,1,0],[0,0.75,0],[0,0.5,0],[0,0.25,0]];shape=mxgraph.bpmn.task;whiteSpace=wrap;rectStyle=rounded;size=10;html=1;container=1;expand=0;collapsible=0;taskMarker=abstract;fillColor=#dae8fc;strokeColor=#6c8ebf;" vertex="1" parent="TrzoBiRfz2zYVmt36XyP-1">
          <mxGeometry x="660" y="159" width="90" height="55" as="geometry" />
        </mxCell>
        <mxCell id="TrzoBiRfz2zYVmt36XyP-17" value="&lt;font style=&quot;font-size: 9px;&quot;&gt;Планировщик - статус &quot;Готов к отбору&quot;&lt;/font&gt;" style="points=[[0.25,0,0],[0.5,0,0],[0.75,0,0],[1,0.25,0],[1,0.5,0],[1,0.75,0],[0.75,1,0],[0.5,1,0],[0.25,1,0],[0,0.75,0],[0,0.5,0],[0,0.25,0]];shape=mxgraph.bpmn.task;whiteSpace=wrap;rectStyle=rounded;size=10;html=1;container=1;expand=0;collapsible=0;taskMarker=abstract;fillColor=#dae8fc;strokeColor=#6c8ebf;" vertex="1" parent="TrzoBiRfz2zYVmt36XyP-1">
          <mxGeometry x="660" y="39" width="90" height="55" as="geometry" />
        </mxCell>
        <mxCell id="TrzoBiRfz2zYVmt36XyP-18" value="Подбор ячеек транзитных" style="points=[[0.25,0,0],[0.5,0,0],[0.75,0,0],[1,0.25,0],[1,0.5,0],[1,0.75,0],[0.75,1,0],[0.5,1,0],[0.25,1,0],[0,0.75,0],[0,0.5,0],[0,0.25,0]];shape=mxgraph.bpmn.task;whiteSpace=wrap;rectStyle=rounded;size=10;html=1;container=1;expand=0;collapsible=0;taskMarker=abstract;fillColor=#dae8fc;strokeColor=#6c8ebf;" vertex="1" parent="TrzoBiRfz2zYVmt36XyP-1">
          <mxGeometry x="820" y="98" width="100" height="53.5" as="geometry" />
        </mxCell>
        <mxCell id="TrzoBiRfz2zYVmt36XyP-19" style="edgeStyle=orthogonalEdgeStyle;rounded=0;orthogonalLoop=1;jettySize=auto;html=1;entryX=0;entryY=0.5;entryDx=0;entryDy=0;entryPerimeter=0;" edge="1" parent="TrzoBiRfz2zYVmt36XyP-1" source="TrzoBiRfz2zYVmt36XyP-17" target="TrzoBiRfz2zYVmt36XyP-18">
          <mxGeometry relative="1" as="geometry" />
        </mxCell>
        <mxCell id="TrzoBiRfz2zYVmt36XyP-20" style="edgeStyle=orthogonalEdgeStyle;rounded=0;orthogonalLoop=1;jettySize=auto;html=1;entryX=0;entryY=0.5;entryDx=0;entryDy=0;entryPerimeter=0;" edge="1" parent="TrzoBiRfz2zYVmt36XyP-1" source="TrzoBiRfz2zYVmt36XyP-4" target="TrzoBiRfz2zYVmt36XyP-5">
          <mxGeometry relative="1" as="geometry" />
        </mxCell>
        <mxCell id="TrzoBiRfz2zYVmt36XyP-21" style="edgeStyle=orthogonalEdgeStyle;rounded=0;orthogonalLoop=1;jettySize=auto;html=1;entryX=0;entryY=0.5;entryDx=0;entryDy=0;entryPerimeter=0;" edge="1" parent="TrzoBiRfz2zYVmt36XyP-1" source="TrzoBiRfz2zYVmt36XyP-5" target="TrzoBiRfz2zYVmt36XyP-14">
          <mxGeometry relative="1" as="geometry" />
        </mxCell>
      </root>
    </mxGraphModel>
  </diagram>
</mxfile>
